# AST/ASF file generated using VICON BodyLanguage
# -----------------------------------------------
:version 1.10
:name VICON
:units
  mass 1.0
  length 0.45
  angle deg
:documentation
   .ast/.asf automatically generated from VICON data using
   VICON BodyBuilder and BodyLanguage model FoxedUp or BRILLIANT.MOD
:root
   order TX TY TZ RX RY RZ
   axis XYZ
   position 0 0 0  
   orientation 0 0 0 
:bonedata
  begin
     id 1 
     name lhipjoint
     direction 0.560651 -0.75055 0.34978 
     length 2.44936 
     axis 0 0 0  XYZ
  end
  begin
     id 2 
     name lfemur
     direction 0.34202 -0.939693 0  
     length 7.42139  
     axis 0 0 20  XYZ
    dof rx ry rz
    limits (-160.0 20.0)
           (-70.0 70.0)
           (-60.0 70.0)
  end
  begin
     id 3 
     name ltibia
     direction 0.34202 -0.939693 0   
     length 7.75674   
     axis 0 0 20   XYZ
    dof rx
    limits (-10.0 170.0)
  end
  begin
     id 4 
     name lfoot
     direction 0.0925879 -0.254383 0.962661   
     length 2.38688   
     axis -90 7.62852e-016 20   XYZ
    dof rx rz
    limits (-45.0 90.0)
           (-70.0 20.0)
  end
  begin
     id 5 
     name ltoes
     direction 1.53567e-011 -4.21973e-011 1   
     length 1.19228   
     axis -90 7.62852e-016 20   XYZ
    dof rx
    limits (-90.0 20.0)
  end
  begin
     id 6 
     name rhipjoint
     direction -0.540087 -0.762838 0.355506   
     length 2.4099  
     axis 0 0 0  XYZ 
  end
  begin
     id 7 
     name rfemur
     direction -0.34202 -0.939693 0   
     length 7.70794   
     axis 0 0 -20   XYZ
    dof rx ry rz
    limits (-160.0 20.0)
           (-70.0 70.0)
           (-70.0 60.0)
  end
  begin
     id 8 
     name rtibia
     direction -0.34202 -0.939693 0   
     length 7.66106   
     axis 0 0 -20   XYZ
    dof rx
    limits (-10.0 170.0)
 end
 begin
     id 9 
     name rfoot
     direction -0.0830975 -0.228308 0.970036   
     length 2.4989  
     axis -90 -7.62852e-016 -20   XYZ
    dof rx rz
    limits (-45.0 90.0)
           (-20.0 70.0)
  end
  begin
     id 10 
     name rtoes
     direction -1.53517e-011 -4.21842e-011 1   
     length 1.2498   
     axis -90 -7.62852e-016 -20   XYZ
    dof rx
    limits (-90.0 20.0)
  end
  begin
     id 11 
     name lowerback
     direction 0.0266356 0.99402 -0.105896   
     length 2.1545   
     axis 0 0 0   XYZ
    dof rx ry rz
    limits (-20.0 45.0)
           (-30.0 30.0)
           (-30.0 30.0)
  end
  begin
     id 12 
     name upperback
     direction 0.0130547 0.999192 0.0380027   
     length 2.1434   
     axis 0 0 0   XYZ
    dof rx ry rz
    limits (-20.0 45.0)
           (-30.0 30.0)
           (-30.0 30.0)
  end
  begin
     id 13 
     name thorax
     direction 0.000590299 0.996288 0.0860764   
     length 2.19049   
     axis 0 0 0   XYZ
    dof rx ry rz
    limits (-20.0 45.0)
           (-30.0 30.0)
           (-30.0 30.0)
  end
  begin
     id 14 
     name lowerneck
     direction -0.0432125 0.978219 0.203028   
     length 1.62441   
     axis 0 0 0   XYZ
    dof rx ry rz
    limits (-20.0 45.0)
           (-30.0 30.0)
           (-30.0 30.0)
  end
  begin
     id 15 
     name upperneck
     direction -0.0192309 0.991699 -0.127138   
     length 1.66666   
     axis 0 0 0   XYZ
    dof rx ry rz
    limits (-20.0 45.0)
           (-30.0 30.0)
           (-30.0 30.0)
  end
  begin
     id 16
     name head
     direction -0.00434499 0.997882 -0.0649107  
     length 1.67142  
     axis 0 0 0   XYZ
    dof rx ry rz
    limits (-20.0 45.0)
           (-30.0 30.0)
           (-30.0 30.0)
  end
  begin
     id 17 
     name lclavicle
     direction 0.970351 0.240904 -0.0196058  
     length 4.04862  
     axis 0 0 0   XYZ
    dof ry rz
    limits (-20.0 10.0)
           (0.0 20.0)
  end
  begin
     id 18 
     name lhumerus
     direction 1 -4.4896e-011 -1.40911e-018   
     length 5.58345   
     axis 180 -30 -90   XYZ
    dof rx ry rz
    limits (-60.0 90.0)
           (-90.0 90.0)
           (-90.0 90.0)
  end
  begin
     id 19
     name lradius
     direction 1 -4.48968e-011 5.88912e-028   
     length 3.71087   
     axis 180 -30 -90   XYZ
    dof rx
    limits (-10.0 170.0)
  end
  begin
     id 20
     name lwrist
     direction 1 -4.48955e-011 -8.83775e-028   
     length 1.85544   
     axis 5.52448e-016 90 90   XYZ
    dof ry
    limits (-180.0 0.0)
 end
  begin
     id 21 
     name lhand
     direction 1 -4.49035e-011 -1.76755e-027   
     length 0.562322   
     axis 1.12785e-015 90 90   XYZ
    dof rx rz
    limits (-90.0 90.0)
           (-45.0 45.0)
  end
  begin
     id 22 
     name lfingers
     direction 1 -4.48824e-011 -3.5351e-027   
     length 0.453359   
     axis 2.2557e-015 90 90   XYZ
    dof rx
    limits (0.0 90.0)
  end
  begin
     id 23
     name lthumb
     direction 0.707107 -6.34888e-011 0.707107   
     length 0.650935   
     axis -90 45 2.85299e-015   XYZ
    dof rx rz
    limits (-45.0 45.0)
           (-45.0 45.0)
  end
  begin
     id 24 
     name rclavicle
     direction -0.96165 0.268562 -0.0557131   
     length 4.05446  
     axis 0 0 0   XYZ 
    dof ry rz
    limits (-10.0 20.0)
           (-20.0 0.0)
  end
  begin
     id 25 
     name rhumerus
     direction -1 -4.48957e-011 -3.36329e-027  
     length 5.20357   
     axis 180 30 90   XYZ
    dof rx ry rz
    limits (-90.0 60.0)
           (-90.0 90.0)
           (-90.0 90.0)
  end
  begin
     id 26 
     name rradius
     direction -1 -4.48974e-011 4.51441e-027   
     length 3.64937   
     axis 180 30 90   XYZ
    dof rx
    limits (-10.0 170.0)
  end
  begin
     id 27 
     name rwrist
     direction -1 -4.4896e-011 -8.83775e-028   
     length 1.82468   
     axis 5.52448e-016 -90 -90   XYZ
    dof ry
    limits (-180.0 0.0)
  end
  begin
     id 28
     name rhand
     direction -1 -4.48996e-011 -1.76755e-027   
     length 0.617996   
     axis 1.12785e-015 -90 -90   XYZ
    dof rx rz
    limits (-90.0 90.0)
           (-45.0 45.0)
  end
  begin
     id 29
     name rfingers
     direction -1 -4.48957e-011 -3.5351e-027   
     length 0.498244   
     axis 2.2557e-015 -90 -90   XYZ
    dof rx
    limits (0.0 90.0)
  end
  begin
     id 30
     name rthumb
     direction -0.707107 -6.34931e-011 0.707107   
     length 0.715382   
     axis -90 -45 -2.85299e-015   XYZ
    dof rx rz
    limits (-45.0 45.0)
           (-45.0 45.0)
  end
:hierarchy
  begin
    root lhipjoint rhipjoint lowerback
    lhipjoint lfemur
    lfemur ltibia
    ltibia lfoot
    lfoot ltoes
    rhipjoint rfemur
    rfemur rtibia
    rtibia rfoot
    rfoot rtoes
    lowerback upperback
    upperback thorax
    thorax lowerneck lclavicle rclavicle
    lowerneck upperneck
    upperneck head
    lclavicle lhumerus
    lhumerus lradius
    lradius lwrist
    lwrist lhand lthumb
    lhand lfingers
    rclavicle rhumerus
    rhumerus rradius
    rradius rwrist
    rwrist rhand rthumb
    rhand rfingers
  end

#!OML:ASF H:\ManfredETheater\Project 1\Capture day 2\Session 1\Male1.ASF
:FULLY-SPECIFIED
:DEGREES
151
root 0.838484 16.7427 36.7868 0.298995 26.5657 -3.23526
lowerback 13.595 0.314067 -3.66158
upperback -0.499307 -0.0420273 1.5127
thorax -8.184 0.173464 3.70285
lowerneck -26.2292 -3.53676 -3.50733
upperneck 19.0806 -3.63023 0.402722
head 10.4957 -1.87374 0.120362
rclavicle -1.87852e-014 -2.38542e-015
rhumerus -48.2544 8.24432 -93.0902
rradius 100.101
rwrist -5.03358
rhand -32.9665 8.64127
rfingers 7.12502
rthumb -6.18189 -21.2485
lclavicle -1.87852e-014 -2.38542e-015
lhumerus -64.5906 -13.1499 99.9235
lradius 106.236
lwrist 22.2125
lhand -15.1503 -7.2031
lfingers 7.12502
lthumb 11.0197 22.4876
rfemur -4.07669 -7.63474 18.2226
rtibia 85.5923
rfoot -0.91431 -0.703338
rtoes -22.3534
lfemur -34.9632 -0.663528 -23.0653
ltibia 53.5569
lfoot -13.3461 -3.26709
ltoes 0.37304
152
root 0.942797 16.6661 37.3067 0.621605 26.9386 -2.49656
lowerback 13.8049 0.155474 -4.43665
upperback -0.255545 -0.401414 1.28623
thorax -8.00416 0.0177965 3.97394
lowerneck -26.6434 -3.53876 -3.72904
upperneck 18.9026 -3.62966 0.806087
head 10.5154 -1.83535 0.297225
rclavicle 4.65653e-014 7.95139e-016
rhumerus -48.5486 6.77965 -92.8605
rradius 97.7175
rwrist -4.92306
rhand -33.0301 5.07505
rfingers 7.12502
rthumb -6.24329 -24.8129
lclavicle 4.65653e-014 7.95139e-016
lhumerus -62.0166 -14.4573 99.9752
lradius 105.546
lwrist 22.3653
lhand -15.5001 -7.3041
lfingers 7.12502
lthumb 10.6824 22.4043
rfemur -7.55099 -9.12447 16.8443
rtibia 88.7677
rfoot -3.0059 -0.212974
rtoes -21.4268
lfemur -33.9355 -1.54971 -23.3687
ltibia 55.3418
lfoot -15.6897 -2.11291
ltoes 0.110197
153
root 1.06719 16.6081 37.8206 0.50019 27.3763 -2.97579
lowerback 13.9064 -0.139559 -3.53586
upperback -0.162584 -0.662549 1.11726
thorax -7.94349 -0.151856 3.33281
lowerneck -26.6318 -3.52457 -3.67075
upperneck 18.6412 -3.67652 0.987167
head 10.421 -1.82845 0.347433
rclavicle -1.18774e-014 6.75868e-015
rhumerus -49.2171 5.22482 -92.9291
rradius 94.8781
rwrist -4.879
rhand -33.6254 5.14109
rfingers 7.12502
rthumb -6.81799 -24.7291
lclavicle -1.18774e-014 6.75868e-015
lhumerus -59.1901 -15.706 99.7097
lradius 104.582
lwrist 22.3165
lhand -15.5647 -7.03595
lfingers 7.12502
lthumb 10.6201 22.6757
rfemur -11.1041 -10.5891 16.9155
rtibia 91.1559
rfoot -5.32595 -0.329149
rtoes -20.7801
lfemur -32.7343 -2.3001 -22.4892
ltibia 56.8098
lfoot -18.1402 -1.25222
ltoes -0.188168
154
root 1.19371 16.5629 38.3336 0.587705 27.0037 -3.41032
lowerback 13.537 -0.218684 -2.90779
upperback -0.0824319 -0.664789 0.987003
thorax -7.655 -0.187951 2.82914
lowerneck -26.3485 -3.33937 -3.25746
upperneck 18.3195 -3.53322 0.762106
head 10.2382 -1.76257 0.229858
rclavicle -6.80837e-014 1.07344e-014
rhumerus -50.0332 4.09055 -93.1398
rradius 92.1923
rwrist -5.28939
rhand -34.2683 6.85972
rfingers 7.12502
rthumb -7.43851 -22.9895
lclavicle -6.80837e-014 1.07344e-014
lhumerus -56.542 -16.5688 99.2689
lradius 104.01
lwrist 22.2108
lhand -15.8071 -7.0477
lfingers 7.12502
lthumb 10.3862 22.6758
rfemur -15.044 -11.252 17.2623
rtibia 92.8696
rfoot -7.22106 -0.996426
rtoes -21.4063
lfemur -31.4016 -2.32844 -21.6165
ltibia 57.795
lfoot -20.4905 -0.383939
ltoes -0.600569
155
root 1.31473 16.5169 38.8557 0.615296 26.3843 -3.5774
lowerback 13.4669 -0.0577974 -2.56326
upperback -0.0356138 -0.403569 0.870951
thorax -7.58572 -0.0784534 2.45673
lowerneck -26.4207 -3.39847 -3.52671
upperneck 18.4626 -3.5446 0.90292
head 10.3114 -1.76926 0.319725
rclavicle -3.18552e-014 -5.96354e-015
rhumerus -51.0701 2.99106 -92.9442
rradius 90.0188
rwrist -4.75166
rhand -34.7648 7.55341
rfingers 7.12502
rthumb -7.91782 -22.2783
lclavicle -3.18552e-014 -5.96354e-015
lhumerus -54.2394 -17.3692 99.1347
lradius 103.955
lwrist 21.6392
lhand -15.9716 -7.00896
lfingers 7.12502
lthumb 10.2276 22.7224
rfemur -18.6956 -11.6603 17.5117
rtibia 93.9509
rfoot -9.13892 -1.83712
rtoes -18.7252
lfemur -29.4803 -2.08551 -21.014
ltibia 58.2309
lfoot -22.6387 0.541605
ltoes -1.34063
156
root 1.4464 16.4974 39.382 0.479365 25.8038 -3.24622
lowerback 13.6763 0.0148099 -2.70635
upperback 0.136754 -0.348466 0.667026
thorax -7.52246 -0.0530418 2.31047
lowerneck -26.4594 -3.26397 -3.45366
upperneck 18.5757 -3.35163 0.762254
head 10.351 -1.69366 0.287898
rclavicle -4.87519e-014 9.93923e-015
rhumerus -52.2336 2.71702 -92.9809
rradius 88.8267
rwrist -5.82225
rhand -35.0085 7.51318
rfingers 7.12502
rthumb -8.15293 -22.3095
lclavicle -4.87519e-014 9.93923e-015
lhumerus -52.1425 -17.4679 98.8266
lradius 104.499
lwrist 20.4675
lhand -15.8942 -7.06557
lfingers 7.12502
lthumb 10.3022 22.6621
rfemur -21.7454 -12.0577 17.2463
rtibia 94.288
rfoot -10.5266 -2.64045
rtoes -20.5325
lfemur -26.6938 -1.77294 -21.0197
ltibia 58.0715
lfoot -24.4591 1.59071
ltoes -2.70763
157
root 1.58529 16.5057 39.9056 0.561371 25.336 -2.53695
lowerback 13.901 -0.0629806 -3.26875
upperback 0.21208 -0.566567 0.413374
thorax -7.55292 -0.143287 2.4043
lowerneck -26.498 -2.94126 -3.25112
upperneck 18.8381 -2.96279 0.670995
head 10.4403 -1.51297 0.284466
rclavicle -2.20651e-014 -1.66979e-014
rhumerus -53.6047 2.98011 -93.3012
rradius 88.4306
rwrist -7.50127
rhand -34.97 7.7114
rfingers 7.12502
rthumb -8.11577 -22.1128
lclavicle -2.20651e-014 -1.66979e-014
lhumerus -50.4142 -16.936 98.3898
lradius 105.586
lwrist 18.9852
lhand -15.7313 -7.06937
lfingers 7.12502
lthumb 10.4593 22.6504
rfemur -24.7639 -12.3546 16.7148
rtibia 93.9702
rfoot -11.759 -3.34525
rtoes -17.3891
lfemur -23.7267 -1.62924 -21.5195
ltibia 57.4483
lfoot -25.781 2.79687
ltoes -4.21893
158
root 1.72257 16.5049 40.4469 0.651215 24.7193 -1.81859
lowerback 13.9907 -0.0147798 -3.88845
upperback 0.266802 -0.621043 0.199276
thorax -7.53793 -0.152076 2.53864
lowerneck -26.5377 -2.719 -3.14218
upperneck 19.1131 -2.65503 0.500401
head 10.5378 -1.38702 0.254217
rclavicle 1.98785e-015 -7.95139e-016
rhumerus -55.2023 3.27797 -93.5413
rradius 88.7567
rwrist -9.10827
rhand -34.8015 7.96694
rfingers 7.12502
rthumb -7.95317 -21.8634
lclavicle 1.98785e-015 -7.95139e-016
lhumerus -48.8889 -16.397 98.1682
lradius 106.981
lwrist 17.9314
lhand -15.6611 -7.40131
lfingers 7.12502
lthumb 10.5271 22.3151
rfemur -27.6317 -12.4103 16.3218
rtibia 93.0946
rfoot -12.9685 -4.10986
rtoes -17.6144
lfemur -20.6415 -1.417 -22.0808
ltibia 56.5511
lfoot -26.6715 4.14928
ltoes -6.18572
159
root 1.87484 16.507 40.9915 0.810621 23.9346 -1.12811
lowerback 14.0548 0.0184554 -4.35144
upperback 0.137506 -0.677675 -0.0413271
thorax -7.70813 -0.161454 2.55707
lowerneck -26.3583 -2.42571 -2.93458
upperneck 19.4249 -2.28452 0.290253
head 10.6088 -1.23119 0.206135
rclavicle 2.43014e-014 1.11319e-014
rhumerus -57.2346 3.83971 -93.9166
rradius 89.6174
rwrist -10.1121
rhand -34.5297 8.29101
rfingers 7.12502
rthumb -7.6909 -21.5491
lclavicle 2.43014e-014 1.11319e-014
lhumerus -47.8325 -15.6771 97.981
lradius 108.86
lwrist 17.5998
lhand -15.4577 -7.19594
lfingers 7.12502
lthumb 10.7233 22.5104
rfemur -30.4706 -12.3245 15.9217
rtibia 91.6488
rfoot -13.9706 -4.6783
rtoes -17.7093
lfemur -17.5948 -1.36193 -22.8075
ltibia 55.4974
lfoot -27.2928 5.40942
ltoes -6.24305
160
root 2.02772 16.5344 41.5453 1.01805 23.6782 -0.52001
lowerback 13.7192 -0.168248 -4.93235
upperback 0.234822 -0.998684 -0.0610432
thorax -7.38138 -0.306261 2.92278
lowerneck -26.5506 -2.09653 -2.85318
upperneck 19.6586 -1.78478 0.0238599
head 10.7175 -1.03299 0.176414
rclavicle -1.67973e-014 -1.47101e-014
rhumerus -58.863 4.63374 -94.0466
rradius 90.7251
rwrist -10.5442
rhand -34.0854 8.6392
rfingers 7.12502
rthumb -7.262 -21.2162
lclavicle -1.67973e-014 -1.47101e-014
lhumerus -46.3809 -14.7609 97.8921
lradius 111.029
lwrist 18.5698
lhand -15.1494 -6.76949
lfingers 7.12502
lthumb 11.0207 22.9212
rfemur -32.9546 -12.7411 15.6742
rtibia 89.5112
rfoot -14.9017 -5.20438
rtoes -17.9594
lfemur -14.6034 -1.67512 -23.4287
ltibia 54.2962
lfoot -27.0276 6.84814
ltoes -9.64573
161
root 2.16474 16.5837 42.1065 1.12883 23.5658 -0.362551
lowerback 13.7658 -0.358613 -5.0009
upperback 0.0264713 -1.27509 -0.0937536
thorax -7.60788 -0.428875 2.98408
lowerneck -26.6117 -1.85654 -2.79317
upperneck 20.1204 -1.47606 0.0376789
head 10.8947 -0.888684 0.221297
rclavicle 2.68359e-014 -1.94809e-014
rhumerus -60.9151 5.01788 -94.2992
rradius 92.051
rwrist -10.4022
rhand -33.734 9.25611
rfingers 7.12502
rthumb -6.92279 -20.6107
lclavicle 2.68359e-014 -1.94809e-014
lhumerus -45.4932 -14.2628 97.845
lradius 113.426
lwrist 20.5512
lhand -15.0519 -6.82899
lfingers 7.12502
lthumb 11.1147 22.8567
rfemur -35.2349 -12.8328 16.1322
rtibia 86.713
rfoot -15.3453 -5.92485
rtoes -17.987
lfemur -11.806 -2.03224 -23.4752
ltibia 53.0194
lfoot -26.1698 7.84298
ltoes -13.5735
162
root 2.31499 16.6513 42.6815 1.44334 23.5625 -0.013188
lowerback 13.3154 -0.670682 -5.38551
upperback -0.0817185 -1.72416 -0.0544396
thorax -7.41929 -0.636147 3.3204
lowerneck -26.4875 -1.46419 -2.36939
upperneck 20.239 -0.984909 -0.406253
head 10.9047 -0.691593 0.0729054
rclavicle -2.7482e-014 -9.93923e-015
rhumerus -62.7582 5.75862 -94.4562
rradius 93.2723
rwrist -10.1635
rhand -33.3084 9.53672
rfingers 7.12502
rthumb -6.5119 -20.3432
lclavicle -2.7482e-014 -9.93923e-015
lhumerus -44.5673 -13.4542 97.7872
lradius 115.979
lwrist 22.7347
lhand -14.934 -6.34828
lfingers 7.12502
lthumb 11.2284 23.3312
rfemur -37.2294 -13.0171 16.2912
rtibia 83.2854
rfoot -15.8324 -6.38254
rtoes -17.0412
lfemur -9.12745 -2.55258 -23.7774
ltibia 51.6245
lfoot -24.8599 8.50741
ltoes -17.6497
163
root 2.4676 16.7294 43.2645 1.87327 23.1072 0.336231
lowerback 12.5733 -0.826898 -5.82759
upperback -0.163105 -1.95089 -0.00926158
thorax -7.05094 -0.741239 3.63857
lowerneck -26.4804 -1.12414 -2.1158
upperneck 20.3643 -0.530303 -0.713465
head 10.9441 -0.506735 -0.00496473
rclavicle -1.55549e-014 -1.19271e-014
rhumerus -64.4151 6.29683 -94.4665
rradius 94.4317
rwrist -9.82742
rhand -32.9722 9.65124
rfingers 7.12502
rthumb -6.18737 -20.2384
lclavicle -1.55549e-014 -1.19271e-014
lhumerus -43.6358 -12.7813 97.712
lradius 118.481
lwrist 24.7021
lhand -14.7725 -6.26244
lfingers 7.12502
lthumb 11.3841 23.4085
rfemur -39.0922 -12.557 16.451
rtibia 79.3123
rfoot -15.9416 -6.9557
rtoes -18.0306
lfemur -6.65124 -2.73396 -24.098
ltibia 50.2418
lfoot -22.8995 8.56597
ltoes -20.2952
164
root 2.60267 16.824 43.8532 2.09619 22.8549 0.25542
lowerback 12.1461 -0.99147 -5.89569
upperback -0.407948 -2.15446 0.087457
thorax -7.04495 -0.832353 3.80596
lowerneck -26.2335 -0.854091 -1.80332
upperneck 20.4982 -0.223967 -0.935563
head 10.947 -0.372438 -0.0852125
rclavicle 6.16232e-015 -7.15625e-015
rhumerus -66.2533 6.48631 -94.4714
rradius 95.5585
rwrist -9.70269
rhand -32.6986 9.81982
rfingers 7.12502
rthumb -5.92319 -20.0774
lclavicle 6.16232e-015 -7.15625e-015
lhumerus -43.1359 -12.4701 97.6418
lradius 120.893
lwrist 26.0397
lhand -14.6357 -6.20854
lfingers 7.12502
lthumb 11.5161 23.4551
rfemur -40.5427 -12.0162 17.0784
rtibia 74.784
rfoot -16.0105 -7.29022
rtoes -15.7385
lfemur -4.31329 -2.92407 -23.7926
ltibia 48.8499
lfoot -20.4953 8.38123
ltoes -23.5452
